<svg xmlns="http://www.w3.org/2000/svg" viewBox="0 0 56.27 41.22"><g id="Layer_2" data-name="Layer 2"><g id="Layer_1-2" data-name="Layer 1"><g id="Layer_2-2" data-name="Layer 2"><path d="M52.14,24.3h-48A3.93,3.93,0,0,1,0,20.61a3.94,3.94,0,0,1,4.14-3.7h48a3.94,3.94,0,0,1,4.13,3.7A3.93,3.93,0,0,1,52.14,24.3Z" fill="#a2a2a2"/><path d="M47.29,7.39H9a3.85,3.85,0,0,1-4-3.7A3.84,3.84,0,0,1,9,0H47.29a3.84,3.84,0,0,1,4,3.69A3.85,3.85,0,0,1,47.29,7.39Z" fill="#a2a2a2"/><path d="M39.42,41.22H17.1a3.85,3.85,0,0,1-3.93-3.52,3.69,3.69,0,0,1,3.69-3.87H39.17a3.86,3.86,0,0,1,3.94,3.53A3.7,3.7,0,0,1,39.42,41.22Z" fill="#a2a2a2"/></g></g></g></svg>