<svg xmlns="http://www.w3.org/2000/svg" viewBox="0 0 390.17 479.58"><g id="Layer_2" data-name="Layer 2"><g id="Layer_1-2" data-name="Layer 1"><path d="M65,130.06a65,65,0,1,1,65-65A65.22,65.22,0,0,1,65,130.06ZM65,24.39A40.64,40.64,0,1,0,105.67,65,40.75,40.75,0,0,0,65,24.39ZM378,52.84H174.76a12,12,0,0,1-12.19-12.2,12,12,0,0,1,12.19-12.19H378a12,12,0,0,1,12.19,12.19A12,12,0,0,1,378,52.84ZM256.05,101.61H174.76a12.2,12.2,0,0,1,0-24.39h81.29a12.2,12.2,0,0,1,0,24.39ZM65,349.53a65,65,0,1,0,65,65A65.22,65.22,0,0,0,65,349.53ZM174.76,227.6H378a12.2,12.2,0,0,0,0-24.39H174.76a12.2,12.2,0,0,0,0,24.39Zm0,48.77h81.29a12.19,12.19,0,0,0,0-24.38H174.76a12.19,12.19,0,1,0,0,24.38ZM378,378H174.76a12.19,12.19,0,1,0,0,24.38H378A12.19,12.19,0,1,0,378,378ZM256.05,426.75H174.76a12.19,12.19,0,1,0,0,24.38h81.29a12.19,12.19,0,0,0,0-24.38Zm-191-252a65,65,0,1,0,65,65A65.22,65.22,0,0,0,65,174.76Z" fill="#fff"/></g></g></svg>