<svg xmlns="http://www.w3.org/2000/svg" viewBox="0 0 38.12 38"><g id="Layer_2" data-name="Layer 2"><g id="Layer_1-2" data-name="Layer 1"><g id="surface1"><path d="M7.65,0A4.07,4.07,0,0,0,5.27,1.21c-6.87,6.87,4.18,10.4,6.92,10.4h3.66S5.31,8.24,7.7,5.34c1.92-2.33,4.16,2.3,8.47,3.2,0,.06-.05.09-.05.14v1.47a1.47,1.47,0,0,0,1.47,1.46h2.94A1.46,1.46,0,0,0,22,10.15V8.68s0-.08,0-.14c4.32-.9,6.56-5.53,8.48-3.2,2.39,2.9-8.16,6.27-8.16,6.27h3.67c2.73,0,13.79-3.53,6.92-10.4a3.53,3.53,0,0,0-5.73.55A15,15,0,0,1,21.76,8a1.45,1.45,0,0,0-1.23-.73H17.59A1.43,1.43,0,0,0,16.36,8,14.93,14.93,0,0,1,11,1.76,3.33,3.33,0,0,0,7.65,0ZM2.93,13.08A2.93,2.93,0,0,0,0,16v7.33H16.12V13.08Zm19.06,0V23.34H38.12V16a2.93,2.93,0,0,0-2.94-2.93ZM0,27.74v7.33A2.93,2.93,0,0,0,2.93,38H16.12V27.74Zm22,0V38H35.18a2.93,2.93,0,0,0,2.94-2.93V27.74Z" fill="#a2a2a2"/></g></g></g></svg>